<svg xmlns="http://www.w3.org/2000/svg" width="2490.877" height="902.496" viewBox="0 0 1868.158 676.872" preserveAspectRatio="xMidYMid meet"><path d="M493.218.872l-13.5 2c-38 5.1-82.6 25.5-116.5 53.3-11.7 9.7-33.1 31.3-42.1 42.7-39.6 49.9-66.3 116.2-72.8 181-2.7 26.6-3.1 43.1-1.6 62.4 1.8 22.9 3.6 34.3 8.1 50.3 10.9 39.3 31.9 71.5 62.3 95.9 37.5 30 85.7 43.6 142.9 40.3 40.4-2.4 78.6-15.4 114.9-39.2 18.1-11.8 30.7-22.3 46.3-38.3 20.5-21.1 37.8-45.1 52.3-72.4 18.9-35.7 33.6-82 38.1-120.5 3.1-26.3 3.6-33.9 3.6-50.6 0-60.2-16.2-108.6-48.6-145.4-37-41.8-87.7-62.7-151.4-62.4-9.6.1-19.5.5-22 .9zm39.1 105.3c21 5.4 37.1 17 49.2 35.4 13.2 20 18.8 41.9 18.8 74.3 0 44-9.1 84.9-27.1 121.5-29.6 60.5-78.2 93.9-128.8 88.6-28.7-3-50.3-15.8-65.6-39-7.4-11.2-12-23.3-15.8-41.1-3.2-15-3.2-49.7 0-71.1 4.4-29.4 10.7-51.7 21.5-76.4 10.9-25 30.8-52.4 48-66.2 20.7-16.7 35.3-24.1 54.7-27.8 11.5-2.2 32.9-1.3 45.1 1.8zm-352.1-97.6l-157.9 59.1c-1 .6-3.4 10.3-7.3 28.8l-9.9 47.9-4.7 23.2-.4 3.3 6.8-2.6 90.9-34.3c12.6-4.8 14.5-5.4 14.5-4.4 0 .9-4.9 24.6-10 48.3l-13.1 62-12.3 57.5-13.1 61.5-7.5 35.5-6.5 30.5-5.6 26-14.5 68.7-.4 2.3h58.5l58.5-.8c0-.5.9-5.1 2-10.3 1.2-5.2 3.4-15.7 5-23.4l6.1-28.5 93.8-440.7c1.2-5.1 2.1-9.5 2.1-9.8 0-.7-73.1-.5-75 .2zm1253 1.8l-59.5 12.6-28.4 5.9c-20.7 4.3-22 4.7-22.6 7.3-.3 1.2-1.6 7.6-3 14.2l-12.4 59-4.1 18.7-1.2 4.8-38.5.2-38.6.3-2.3 11.5-16.2 77.7c-1.1 5.1-1.7 9.5-1.4 9.8s17.6.5 38.4.5 37.8.3 37.8.8c0 .4-.7 3.9-1.5 7.7-.9 3.9-2.4 11.3-3.5 16.5l-4.5 20.5-7.6 35-8.5 40c-12.7 59.2-14.1 68.2-13 85.6 1.4 24.2 9.2 41.9 25 57.4 17 16.5 38.3 25 73 28.9 22.3 2.6 30.4 2.3 71.1-2.5 9.4-1.1 19.5-2.6 22.5-3.3l5.4-1.2 2.7-12.5 12.4-58.4 3.9-17.5 1.1-4.4c.5-2.4.3-2.8-1.1-2.2-4.1 1.6-26.8 4.6-38.8 5.2-20.4.9-33.8-1.4-43.8-7.8-3.7-2.3-5.4-4.4-7.8-9.1-5.6-11.5-5.1-20.5 3-56.7l6.5-30 6-28 12.2-56.3 1.6-7.7h106.5l1.1-4.8c.5-2.6 1.8-8.3 2.7-12.7l9.8-47.9 4.6-21.7c1.1-4.9 2-9.8 2-10.9 0-2-.6-2-53.1-2-50 0-53-.1-52.5-1.8.3-.9 2.2-9.4 4.2-18.7l18.9-88 3-14.3c.3-1.2.2-2.2-.2-2.1l-11.3 2.4zm-452.5 118.6c-25.8 3.3-40.8 7.3-59.4 16l-10.6 4.9c-.3 0 1.8-9.8 3-14.3l.7-2.7-57.8.2-57.8.3-.7 3c-.3 1.6-1.6 7.7-2.8 13.5l-111.9 527h116.8l.5-2.3c.2-1.2 1.4-6.3 2.5-11.2l10.6-49.5 6.5-30 6.4-30 6-28.5 3.9-18c.8-3.3 2-8.6 2.6-11.8.6-3.1 1.4-5.7 1.8-5.7s4.3 2.7 8.7 6c13.6 10.2 39.9 22.4 56.3 26.1 35.4 8 75.7 6.4 109.2-4.3 48.8-15.6 90.2-46.4 116.2-86.5 15.9-24.4 24.2-42.9 31.5-70.3 5.8-21.8 7.3-61.5 3.4-85.3-4-23.8-15.4-51.5-30.4-73.7-8.7-12.8-29.3-33.9-41.7-42.5-11.3-7.8-32.5-18.6-44.3-22.4-12.6-4.1-20.9-5.8-37.4-7.6-14.7-1.6-21.1-1.7-31.8-.4zm8.5 103.4c12.5 3.4 22.3 8.2 31.2 15.3 28.4 22.6 39.9 55.9 32.4 93.2-5.4 26.7-21.3 50.7-43.8 66.1-11.2 7.6-20.4 11.9-33.8 15.5-9.7 2.6-11.8 2.8-28.5 2.8-16.2 0-19-.3-28.2-2.6-13.6-3.6-26.1-8.9-35.2-15-9.2-6.1-17.3-13-19.6-16.4-1.8-2.8-2.2 0 7.5-45.9l17.7-83.7c1.5-7.5 1.6-7.7 7.2-11.8 12.1-9 33.3-17.3 51.1-20 10.5-1.6 31.5-.4 42 2.5zm670.3-102c-36 5.6-62.7 17.5-84.8 37.7-30.1 27.6-43.4 76.2-32.4 118.5 8.4 32.8 31.3 57 67.4 71.3 12.4 4.9 23.6 7.7 71.5 18 31.1 6.6 40.8 9.1 47.5 12.3 15.7 7.5 21.1 19 15 31.4-4.3 8.5-14 15-28 18.8-8.1 2.3-32.3 3.1-45.2 1.6-30.6-3.6-64.1-18.1-96.8-42.1l-10.1-7.3c-.7-.4-3.8 2.5-7.5 7.1l-43.8 51.7-14.2 17 2.8 2.3c36.4 30.2 82.8 49.1 144.8 58.9 13.2 2.1 65.3 2.4 76.6.5 36-6.1 65.4-18.9 90.5-39.3 36.7-29.8 53.9-81.6 40.8-123-4.9-15.6-11.9-27.2-23.6-39.1-18.8-19.1-41.1-30-78.3-38.3l-55-12c-25.5-5.6-32.7-7.6-40.2-11.6-7.4-3.9-9-5.4-11.9-11.1-4.9-9.7-1.7-22.7 7.3-29.4 17.6-13.3 58.9-11.9 97.3 3.3 14.3 5.6 31.3 14.5 44.4 23.2 5.6 3.6 10.6 6.6 11.1 6.6.9 0 23.8-25 43.4-47.4l12.8-14.5c4-4.4 7.3-8.6 7.2-9.1 0-2.5-25.9-19.8-41.6-27.8-41-20.9-83.7-30.8-131.5-30.6-15.9.1-23.6.6-35.5 2.4z"/></svg>