<svg xmlns="http://www.w3.org/2000/svg" width="1316.936" height="524.652" viewBox="0 0 987.702 393.489" preserveAspectRatio="xMidYMid meet"><path d="M305.202.24c-36.7 3.6-68 18.7-95.1 45.8-16.2 16.3-26.6 31.2-37.4 53.9-25.2 52.6-28.9 117.8-9.2 159.1 8.6 18 19.1 31 33.7 41.9 20.6 15.4 44.8 22.6 75.5 22.7 23.9 0 42.9-4.5 64.4-15.4 53.2-26.9 90-83.3 99.2-152.1 1.7-13 2-43.1.5-53-4.6-29.6-13.9-49.6-32.1-68.8-15.9-16.8-37.1-27.9-61.4-32.2-9-1.5-30.7-2.6-38.1-1.9zm16.6 63.8c21.9 3.9 36.6 18.5 43.5 43.1 2.2 8.1 3 33.8 1.4 45.9-3.7 28.1-13.6 54.8-27 72.8-6.4 8.4-20.1 21.3-27.4 25.7-10.3 6.2-17.8 8.3-30.6 8.8-8.8.4-13.1.1-18-1.2-21.3-5.5-35.4-21.3-40.7-45.8-1.9-8.9-2.1-32.5-.4-45.2 5.5-39.6 23-73 48-91.4 16.7-12.3 32-16.1 51.2-12.7zm-259.6-41l-49 18.4-1.8 8.3-6.6 31.6-4.8 23.1 7.1-2.6 34.1-12.8c22.4-8.5 27-9.9 27.2-8.6.1 1-11.1 55-25 120.2l-25.3 118.5 35.5.3 35.7-.1c.2-.2 15.3-70.3 33.4-155.8l33.6-157.2c.5-1.6-1-1.7-22.3-1.6h-22.8l-49 18.3zm717.5 53.1c-3 .7-15.7 3.4-28.1 6l-22.6 4.8-4.2 20.1-5.2 23.8-1 3.8h-36.6l-4.6 22.7-4.7 23.5c0 .5 8.1.8 18 .8s18 .4 18 .9c0 .4-3.9 18.8-8.7 40.7-8.2 37.9-8.7 40.5-8.7 52.4-.1 9.9.3 13.4 1.7 17 9.7 23.7 34.5 32.7 76.4 27.5 6.7-.8 12.8-1.7 13.5-2 1.4-.6 11.5-44.1 10.6-45.1-.3-.2-2.9.1-5.9.6-3 .6-10 1.1-15.7 1.1-8.8.1-10.9-.3-15-2.3-5.7-2.8-8.2-7.2-8.1-14.3 0-2.8 3.5-21 7.7-40.5l7.7-35.5 25.5-.3 25.5-.2 4.3-21.3 4.9-23.5.5-2.2h-25.1c-20.6 0-25.1-.2-25.1-1.4 0-.7 2.7-13.8 6-29l6-28.6c0-1.2 0-1.2-7 .5zm-216.3 56.6c-6.4.7-20.3 4.7-29.1 8.4-1.7.7-1.8.5-1.2-2.8l.7-3.7h-55l-.6 3.2-54.1 255.3 27.4.3 27.9-.1c.4-.4 19.3-87.5 19.3-89 0-.5 1.7.4 3.8 2 6.3 4.9 12.6 8.1 22.4 11.4 8.1 2.8 11.1 3.3 22.7 3.7 14.7.5 22.7-.5 35.6-4.5 35.2-11 62-41.1 70-78.3 2.4-10.9 2.2-31.4-.3-41-2.9-10.9-5.7-17.7-10.4-25.6-16.7-27.9-46.4-42.7-79.1-39.3zm6.2 49c13.2 3 25.4 14.7 29.6 28.5 1.9 6.4 1.9 19.6-.1 26.5-5 17.2-19 30.8-36.5 35.4-6.5 1.8-17.8 1.9-25.1.4-8-1.7-18.8-7.1-23.9-12l-4.7-4.4 5.4-25c9.4-44 7.8-38.9 13.4-42.5 12.3-7.9 26.9-10.3 41.9-6.9zm321.6-49c-19.3 2.6-32.3 8.6-43.5 19.8-11.6 11.7-16.1 23.3-16.1 41.2 0 10.9 2.7 20.8 7.7 28.1 6.9 9.9 20.4 18.7 34.2 22.2 3.4.9 15.2 3.6 26.1 6.1 21.2 4.6 24.7 5.9 28 10.1 3.4 4.3 2.8 9.6-1.4 13.7-4.9 4.8-11.7 6.7-23.5 6.7-18.2 0-36.1-6.6-54.7-20.2l-5.2-3.8-30.9 36.3 4.6 3.7c28.7 22.4 81 32.8 114.7 22.9 21.8-6.5 37.9-18.9 45.9-35.4 4.3-8.9 5.9-15.7 5.8-25.4 0-13.6-3.9-22.9-13.5-32.4-10.8-10.8-19.1-14.2-53-21.6-12.2-2.7-24.2-5.7-26.5-6.6-12.8-5.2-12.2-19 1.1-23 15.6-4.6 42.7 2.1 62.2 15.5 2.4 1.7 4.6 3 4.8 3 .9 0 29.7-32.9 29.7-33.9 0-1.1-14.2-10.7-20.7-14-10.4-5.2-23.1-9.3-35.8-11.6-10.4-1.9-31.1-2.7-40-1.4z"/></svg>